<svg width="116" height="112" viewBox="0 0 116 112" fill="none" xmlns="http://www.w3.org/2000/svg">
<g clip-path="url(#clip0)">
<path d="M87.6093 66.5879C79.5466 66.5879 72.9874 72.9209 72.9874 80.7056C72.9874 88.4902 79.5466 94.8233 87.6093 94.8233C95.6733 94.8233 102.231 88.4902 102.231 80.7056C102.231 72.9209 95.672 66.5879 87.6093 66.5879ZM87.6093 87.7644C83.5774 87.7644 80.2984 84.5985 80.2984 80.7056C80.2984 76.8127 83.5774 73.6467 87.6093 73.6467C91.6412 73.6467 94.9203 76.8127 94.9203 80.7056C94.9203 84.5987 91.6412 87.7644 87.6093 87.7644Z" fill="#FF6047"/>
<path d="M37.6513 66.5879C29.5886 66.5879 23.0294 72.9209 23.0294 80.7056C23.0294 88.4902 29.5886 94.8233 37.6513 94.8233C45.714 94.8233 52.2732 88.4902 52.2732 80.7056C52.2732 72.9209 45.714 66.5879 37.6513 66.5879ZM37.6513 87.7644C33.6194 87.7644 30.3404 84.5985 30.3404 80.7056C30.3404 76.8127 33.6194 73.6467 37.6513 73.6467C41.6821 73.6467 44.9623 76.8127 44.9623 80.7056C44.9623 84.5987 41.6832 87.7644 37.6513 87.7644Z" fill="#FF6047"/>
<path d="M97.456 26.1789C96.8345 24.9872 95.571 24.2354 94.1892 24.2354H74.937V31.2942H91.9349L101.889 50.4095L108.422 47.2376L97.456 26.1789Z" fill="#FF6047"/>
<path d="M76.6428 77.2944H48.9832V84.3533H76.6428V77.2944Z" fill="#FF6047"/>
<path d="M26.6849 77.2944H14.0128C11.9937 77.2944 10.3574 78.8745 10.3574 80.8237C10.3574 82.7732 11.9939 84.3531 14.0128 84.3531H26.6851C28.7042 84.3531 30.3405 82.773 30.3405 80.8237C30.3405 78.8742 28.704 77.2944 26.6849 77.2944Z" fill="#FF6047"/>
<path d="M115.233 55.7174L108.042 46.7762C107.352 45.915 106.285 45.4114 105.156 45.4114H78.5926V20.7056C78.5926 18.7561 76.9561 17.1763 74.9372 17.1763H14.0128C11.9937 17.1763 10.3574 18.7563 10.3574 20.7056C10.3574 22.6549 11.9939 24.2349 14.0128 24.2349H71.2817V48.9407C71.2817 50.8902 72.9181 52.4701 74.937 52.4701H103.366L108.689 59.0912V77.2936H98.5756C96.5565 77.2936 94.9203 78.8736 94.9203 80.8229C94.9203 82.7724 96.5567 84.3522 98.5756 84.3522H112.345C114.364 84.3522 116 82.7722 116 80.8229V57.8821C116 57.0986 115.73 56.3362 115.233 55.7174Z" fill="#FF6047"/>
<path d="M26.4412 59.4121H9.62594C7.60682 59.4121 5.97058 60.9921 5.97058 62.9414C5.97058 64.8909 7.60704 66.4707 9.62594 66.4707H26.441C28.4601 66.4707 30.0963 64.8907 30.0963 62.9414C30.0965 60.9921 28.4601 59.4121 26.4412 59.4121Z" fill="#FF6047"/>
<path d="M34.8487 45.5293H3.65536C1.63646 45.5293 0 47.1093 0 49.0588C0 51.0083 1.63646 52.5881 3.65536 52.5881H34.8487C36.8678 52.5881 38.5041 51.0081 38.5041 49.0588C38.5041 47.1095 36.8678 45.5293 34.8487 45.5293Z" fill="#FF6047"/>
<path d="M40.8193 31.647H9.62594C7.60682 31.647 5.97058 33.227 5.97058 35.1763C5.97058 37.1258 7.60704 38.7056 9.62594 38.7056H40.8193C42.8384 38.7056 44.4747 37.1256 44.4747 35.1763C44.4749 33.227 42.8384 31.647 40.8193 31.647Z" fill="#FF6047"/>
</g>
<defs>
<clipPath id="clip0">
<rect width="116" height="112" fill="white"/>
</clipPath>
</defs>
</svg>
