<svg width="24" height="24" viewBox="0 0 24 24" fill="none" xmlns="http://www.w3.org/2000/svg">
<g clip-path="url(#clip0)">
<path d="M11.5853 5.89343H11.7689C11.825 6.39221 12.2494 6.78149 12.7634 6.78149H13.4421C13.9942 6.78149 14.4434 6.33252 14.4434 5.78082V5.06854C14.4434 5.03375 14.4721 5.00537 14.5073 5.00537H15.2261C15.2613 5.00537 15.29 5.03375 15.29 5.06854V5.78082C15.29 5.81561 15.2613 5.84399 15.2261 5.84399H15.1604C14.9015 5.84399 14.6917 6.05383 14.6917 6.31274C14.6917 6.57166 14.9015 6.78149 15.1604 6.78149H15.2261C15.7401 6.78149 16.1644 6.3924 16.2208 5.89343H16.4042C16.663 5.89343 16.873 5.68359 16.873 5.42468C16.873 5.16577 16.663 4.95593 16.4042 4.95593H16.2208C16.1646 4.45715 15.7401 4.06787 15.2261 4.06787H14.5073C13.9552 4.06787 13.5059 4.51666 13.5059 5.06854V5.78082C13.5059 5.81561 13.4773 5.84399 13.4421 5.84399H12.7634C12.7282 5.84399 12.6996 5.81561 12.6996 5.78082V5.06854C12.6996 5.03375 12.7282 5.00537 12.7634 5.00537C13.0223 5.00537 13.2321 4.79553 13.2321 4.53662C13.2321 4.27771 13.0223 4.06787 12.7634 4.06787C12.2494 4.06787 11.8251 4.45697 11.7689 4.95593H11.5854C11.3265 4.95593 11.1167 5.16577 11.1167 5.42468C11.1167 5.68341 11.3265 5.89343 11.5853 5.89343Z" fill="#FFFFFD"/>
<path d="M21.4149 15.2075L18.7339 11.6168V7.10321C18.7339 7.1012 18.7341 7.09937 18.7341 7.09735V4.54742H20.4408C21.0919 4.54742 21.6216 4.01788 21.6216 3.36694V1.1803C21.6216 0.529541 21.0919 0 20.4408 0H7.69042C7.03948 0 6.50993 0.529541 6.50993 1.1803V3.36694C6.50993 4.01788 7.03948 4.54742 7.69042 4.54742H9.25487V9.49457L6.93291 7.0144C6.8441 6.91974 6.72032 6.86591 6.59068 6.86591C6.46086 6.86591 6.33708 6.91974 6.24846 7.0144L2.32964 11.1998C2.20201 11.3362 2.16759 11.5353 2.24175 11.7067C2.31609 11.8781 2.48509 11.9888 2.67186 11.9888H4.4456V13.5361C4.4456 13.7948 4.65544 14.0048 4.91435 14.0048C5.17326 14.0048 5.3831 13.7948 5.3831 13.5361V11.5201C5.3831 11.3958 5.33367 11.2766 5.24577 11.1887C5.15788 11.1008 5.03868 11.0513 4.91435 11.0513H3.75292L6.59068 8.02057L9.42827 11.0513H8.12456C7.86565 11.0513 7.65581 11.2614 7.65581 11.5201V17.7294H5.3831V17.1923C5.3831 16.9334 5.17308 16.7236 4.91435 16.7236C4.65544 16.7236 4.4456 16.9334 4.4456 17.1923V18.1981C4.4456 18.457 4.65544 18.6669 4.91435 18.6669H8.12456C8.38329 18.6669 8.59331 18.457 8.59331 18.1981V11.989H9.25487V14.6444C9.25487 14.9033 9.46471 15.1132 9.72362 15.1132H11.4183C11.4194 15.1132 11.4206 15.113 11.4217 15.113H13.9607V20.2936H13.3896C13.1307 20.2936 12.9208 20.5036 12.9208 20.7623V23.5312C12.9208 23.7902 13.1307 24 13.3896 24H20.224C20.4827 24 20.6927 23.7902 20.6927 23.5312V20.7625C20.6927 20.5036 20.4827 20.2938 20.224 20.2938H19.7199C19.7375 20.2297 19.7607 20.1672 19.7898 20.1075L21.5687 17.38C21.5777 17.3665 21.5857 17.3524 21.5932 17.3381C21.9426 16.6573 21.8727 15.8212 21.4149 15.2075ZM19.7552 23.0625H13.8585V21.2313H19.7552V23.0625ZM10.1926 4.07867V3.66028C10.3971 3.39038 10.6503 3.14447 10.948 2.92639H17.0791C17.3584 3.13092 17.5988 3.36053 17.7964 3.61121V6.94116C17.0044 7.94623 15.5709 8.56494 14.0134 8.56494C12.4244 8.56494 10.9761 7.92719 10.1926 6.89191V4.07867ZM17.7947 14.1755H17.1308C17.2553 13.8759 17.4952 13.636 17.7947 13.5115V14.1755ZM17.0319 15.1132H17.7947V16.1362C17.7947 16.238 17.755 16.3337 17.683 16.4057C17.6111 16.4777 17.5155 16.5174 17.4137 16.5174C17.2031 16.5174 17.0319 16.3464 17.0319 16.1362V15.1132ZM7.69042 3.60992C7.55638 3.60992 7.44744 3.50098 7.44744 3.36694V1.1803C7.44744 1.04645 7.55638 0.9375 7.69042 0.9375H20.4408C20.575 0.9375 20.6841 1.04645 20.6841 1.1803V3.36694C20.6841 3.50098 20.575 3.60992 20.4408 3.60992H18.7341V2.92621H19.5406C19.7995 2.92621 20.0094 2.71637 20.0094 2.45746C20.0094 2.19855 19.7995 1.98871 19.5406 1.98871H8.59093C8.33202 1.98871 8.12218 2.19855 8.12218 2.45746C8.12218 2.71637 8.33202 2.92621 8.59093 2.92621H9.25487V3.60992H7.69042ZM10.1924 14.1755V13.5115C10.4919 13.636 10.7318 13.8759 10.8563 14.1755H10.1924ZM13.9607 14.1755H11.8352C11.6539 13.3583 11.0094 12.7139 10.1924 12.5327V11.9888H10.5093C10.6959 11.9888 10.8649 11.8781 10.9393 11.7067C10.9858 11.5995 10.9896 11.4816 10.955 11.3749C10.9341 11.3108 10.8993 11.2507 10.8514 11.1996L10.1924 10.4956V8.2262C11.1811 9.03113 12.5526 9.50244 14.0134 9.50244C15.4504 9.50244 16.8091 9.04193 17.7964 8.25604V11.731C17.7953 11.744 17.7947 11.757 17.7947 11.7702V12.5327C17.5138 12.5949 17.2536 12.7119 17.0253 12.8718C16.9925 12.5158 16.8382 12.1853 16.5826 11.9295C16.2929 11.6391 15.9073 11.4792 15.4964 11.4792H15.4962C14.6495 11.4792 13.9607 12.1681 13.9607 13.0148V14.1755ZM20.7691 16.89L18.9902 19.6176C18.9814 19.6311 18.9732 19.645 18.9659 19.6593C18.8641 19.8576 18.7956 20.0729 18.7637 20.2936H14.8982V13.0148C14.8982 12.6795 15.1609 12.4167 15.4962 12.4167C15.6561 12.4167 15.806 12.4788 15.919 12.5922C16.032 12.7051 16.0944 12.8553 16.0944 13.0148V14.6442V14.647V16.1362C16.0944 16.8633 16.6862 17.4549 17.4137 17.4549C17.7658 17.4549 18.097 17.3177 18.3461 17.0687C18.5951 16.8197 18.7322 16.4885 18.7322 16.1362V14.6777C18.733 14.6666 18.7339 14.6556 18.7339 14.6442V13.1838L20.6636 15.7683C20.9044 16.0911 20.9451 16.5291 20.7691 16.89Z" fill="#FFFFFD"/>
<path d="M4.48189 15.5566C4.55604 15.7344 4.7364 15.8517 4.9294 15.8455C5.11653 15.8395 5.28774 15.7179 5.3531 15.5421C5.42232 15.3563 5.3661 15.1407 5.21193 15.0148C5.05574 14.8871 4.83052 14.8747 4.66078 14.9833C4.47182 15.1043 4.39729 15.3498 4.48189 15.5566Z" fill="#FFFFFD"/>
</g>
<defs>
<clipPath id="clip0">
<rect width="24" height="24" fill="white"/>
</clipPath>
</defs>
</svg>
