<svg width="24" height="24" viewBox="0 0 24 24" fill="none" xmlns="http://www.w3.org/2000/svg">
<path d="M23.6477 7.10227L20.6477 4.10227C20.569 4.0236 20.4688 3.97004 20.3597 3.94833C20.2506 3.92663 20.1375 3.93777 20.0347 3.98034C19.9319 4.02291 19.8441 4.09501 19.7823 4.18751C19.7205 4.28 19.6875 4.38875 19.6875 4.5V5.4375H18.5625V2.25C18.5619 1.70318 18.3444 1.17893 17.9577 0.792264C17.5711 0.405602 17.0468 0.188108 16.5 0.1875H7.49997C6.95315 0.188108 6.4289 0.405602 6.04224 0.792264C5.65558 1.17893 5.43808 1.70318 5.43747 2.25V14.4375H4.31247V13.5C4.31247 13.3888 4.27948 13.28 4.21767 13.1875C4.15586 13.095 4.06801 13.0229 3.96523 12.9803C3.86245 12.9378 3.74935 12.9266 3.64024 12.9483C3.53113 12.97 3.43091 13.0236 3.35224 13.1023L0.352239 16.1023C0.246758 16.2078 0.1875 16.3508 0.1875 16.5C0.1875 16.6492 0.246758 16.7922 0.352239 16.8977L3.35224 19.8977C3.68627 20.2534 4.32818 19.9856 4.31247 19.5V18.5625H5.43747V21.75C5.43808 22.2968 5.65558 22.8211 6.04224 23.2077C6.4289 23.5944 6.95315 23.8119 7.49997 23.8125H16.5C17.0468 23.8119 17.5711 23.5944 17.9577 23.2077C18.3444 22.8211 18.5619 22.2968 18.5625 21.75V9.5625H19.6875V10.5C19.6718 10.9858 20.3137 11.2533 20.6477 10.8977L23.6477 7.89773C23.7532 7.79225 23.8125 7.64918 23.8125 7.5C23.8125 7.35082 23.7532 7.20775 23.6477 7.10227ZM7.49997 1.3125H16.5C16.7485 1.31279 16.9868 1.41165 17.1626 1.5874C17.3383 1.76316 17.4372 2.00145 17.4375 2.25V3.1875H6.56247V2.25C6.56276 2.00145 6.66162 1.76316 6.83738 1.5874C7.01313 1.41165 7.25142 1.31279 7.49997 1.3125ZM16.5 22.6875H7.49997C7.25142 22.6872 7.01313 22.5884 6.83738 22.4126C6.66162 22.2368 6.56276 21.9986 6.56247 21.75V20.8125H17.4375V21.75C17.4372 21.9986 17.3383 22.2368 17.1626 22.4126C16.9868 22.5884 16.7485 22.6872 16.5 22.6875ZM20.8125 9.14198V9C20.8125 8.85082 20.7532 8.70774 20.6477 8.60225C20.5422 8.49676 20.3992 8.4375 20.25 8.4375H15.75C15.6008 8.4375 15.4577 8.49676 15.3522 8.60225C15.2467 8.70774 15.1875 8.85082 15.1875 9C15.1875 9.14918 15.2467 9.29226 15.3522 9.39775C15.4577 9.50324 15.6008 9.5625 15.75 9.5625H17.4375V19.6875H6.56247V18.5625H8.24997C8.39916 18.5625 8.54223 18.5032 8.64772 18.3977C8.75321 18.2923 8.81247 18.1492 8.81247 18C8.81247 17.8508 8.75321 17.7077 8.64772 17.6023C8.54223 17.4968 8.39916 17.4375 8.24997 17.4375H3.74997C3.60079 17.4375 3.45772 17.4968 3.35223 17.6023C3.24674 17.7077 3.18747 17.8508 3.18747 18V18.142L1.54549 16.5L3.18747 14.858V15C3.18747 15.1492 3.24674 15.2923 3.35223 15.3977C3.45772 15.5032 3.60079 15.5625 3.74997 15.5625H8.24997C8.39916 15.5625 8.54223 15.5032 8.64772 15.3977C8.75321 15.2923 8.81247 15.1492 8.81247 15C8.81247 14.8508 8.75321 14.7077 8.64772 14.6023C8.54223 14.4968 8.39916 14.4375 8.24997 14.4375H6.56247V4.3125H17.4375V5.4375H15.75C15.6008 5.4375 15.4577 5.49676 15.3522 5.60225C15.2467 5.70774 15.1875 5.85082 15.1875 6C15.1875 6.14918 15.2467 6.29226 15.3522 6.39775C15.4577 6.50324 15.6008 6.5625 15.75 6.5625H20.25C20.3992 6.5625 20.5422 6.50324 20.6477 6.39775C20.7532 6.29226 20.8125 6.14918 20.8125 6V5.85802L22.4545 7.5L20.8125 9.14198Z" fill="#FFFFFD"/>
<path d="M11.25 9.5625H13.125C13.2741 9.56266 13.4171 9.62198 13.5226 9.72743C13.628 9.83289 13.6873 9.97587 13.6875 10.125C13.6875 10.2742 13.7468 10.4173 13.8523 10.5227C13.9577 10.6282 14.1008 10.6875 14.25 10.6875C14.3992 10.6875 14.5423 10.6282 14.6477 10.5227C14.7532 10.4173 14.8125 10.2742 14.8125 10.125C14.812 9.6776 14.6341 9.24867 14.3177 8.93231C14.0013 8.61595 13.5724 8.438 13.125 8.4375H12.5625V7.5C12.5625 7.35082 12.5032 7.20774 12.3977 7.10225C12.2923 6.99676 12.1492 6.9375 12 6.9375C11.8508 6.9375 11.7077 6.99676 11.6023 7.10225C11.4968 7.20774 11.4375 7.35082 11.4375 7.5V8.4375H11.25C10.703 8.4375 10.1784 8.6548 9.79159 9.04159C9.4048 9.42839 9.1875 9.95299 9.1875 10.5C9.1875 11.047 9.4048 11.5716 9.79159 11.9584C10.1784 12.3452 10.703 12.5625 11.25 12.5625H12.75C12.9986 12.5625 13.2371 12.6613 13.4129 12.8371C13.5887 13.0129 13.6875 13.2514 13.6875 13.5C13.6875 13.7486 13.5887 13.9871 13.4129 14.1629C13.2371 14.3387 12.9986 14.4375 12.75 14.4375H10.875C10.7259 14.4373 10.5829 14.378 10.4774 14.2726C10.372 14.1671 10.3127 14.0241 10.3125 13.875C10.3125 13.7258 10.2532 13.5827 10.1477 13.4773C10.0423 13.3718 9.89918 13.3125 9.75 13.3125C9.60082 13.3125 9.45774 13.3718 9.35225 13.4773C9.24676 13.5827 9.1875 13.7258 9.1875 13.875C9.188 14.3224 9.36595 14.7513 9.68231 15.0677C9.99867 15.3841 10.4276 15.562 10.875 15.5625H11.4375V16.5C11.4375 16.6492 11.4968 16.7923 11.6023 16.8977C11.7077 17.0032 11.8508 17.0625 12 17.0625C12.1492 17.0625 12.2923 17.0032 12.3977 16.8977C12.5032 16.7923 12.5625 16.6492 12.5625 16.5V15.5625H12.75C13.297 15.5625 13.8216 15.3452 14.2084 14.9584C14.5952 14.5716 14.8125 14.047 14.8125 13.5C14.8125 12.953 14.5952 12.4284 14.2084 12.0416C13.8216 11.6548 13.297 11.4375 12.75 11.4375H11.25C11.0014 11.4375 10.7629 11.3387 10.5871 11.1629C10.4113 10.9871 10.3125 10.7486 10.3125 10.5C10.3125 10.2514 10.4113 10.0129 10.5871 9.83709C10.7629 9.66127 11.0014 9.5625 11.25 9.5625Z" fill="#FFFFFD"/>
</svg>
